<svg width="97" height="128" viewBox="0 0 97 128" fill="none" xmlns="http://www.w3.org/2000/svg">
<path d="M62.7374 105.043C63.5823 105.389 64.1712 106.208 64.1712 107.168C64.1712 108.436 63.147 109.46 61.8796 109.46H42.5999C43.0479 121.109 43.0479 124.694 43.0479 124.745C43.0479 126.013 42.0238 127.037 40.7564 127.037C39.489 127.037 38.4648 126.013 38.4648 124.745C38.4648 124.694 38.4648 120.93 38.0168 109.46L37.7991 104.864L37.7607 104.275C37.6455 102.444 37.5431 100.562 37.4663 98.8213C36.7494 84.9055 36.5189 80.3608 20.094 78.0821C14.4995 77.3012 9.96764 75.2656 6.67753 72.398C4.29637 70.3241 2.5553 67.8021 1.50554 65.0113C0.468576 62.2204 0.135725 59.1864 0.570992 56.0499C1.17268 51.6844 3.2594 47.1525 6.95917 42.9023C10.2749 39.1001 14.858 35.0419 18.9418 31.4445C23.5249 27.3991 27.4295 23.9553 27.5575 22.9568C27.6344 22.3807 27.3655 21.7662 26.9559 21.3053C26.751 21.0749 26.5334 20.8957 26.3285 20.8061L26.2901 20.7805C25.2916 22.4319 24.3827 23.6737 23.0769 24.5314L22.9232 24.6338C21.451 25.5428 19.7227 25.85 17.2648 25.5556C15.4085 25.338 12.9761 25.466 10.8894 26.3493C9.49396 26.9382 8.26497 27.8599 7.56087 29.2554C7.18961 30.1259 6.29347 30.702 5.29492 30.6252C4.02752 30.5356 3.08018 29.4346 3.16979 28.18C3.16979 28.1544 3.69467 18.092 9.49396 14.0338C10.5437 6.89032 14.5379 2.94731 19.4027 1.47509C22.9872 0.39972 27.0199 0.745373 30.6428 2.192C34.2402 3.63862 37.4791 6.18621 39.489 9.54033C42.5615 14.6483 42.8303 21.4974 37.3895 28.9481C34.125 33.4032 29.8235 37.3206 25.8421 40.918C19.5947 46.5892 14.2819 51.4028 16.6631 55.2434C19.5051 59.8393 27.1351 55.2818 36.3781 49.7641C42.2798 46.2308 48.7832 42.3646 55.4786 40.009C70.6234 34.709 86.1906 37.0902 96.7906 67.4052C97.2003 68.5958 96.573 69.9016 95.3824 70.3113C94.1918 70.7209 92.886 70.0936 92.4763 68.9031C83.1053 42.0957 69.8296 39.8298 56.9893 44.3105C50.7291 46.4996 44.4433 50.2506 38.7337 53.6687C29.0042 59.4808 20.7213 64.4224 15.2805 60.4282C15.7285 61.3243 16.407 62.054 17.2648 62.6429C18.929 63.7567 21.2206 64.3968 23.781 64.6656C29.0426 65.2161 35.2003 64.1919 39.3994 62.5405C42.3566 61.3755 44.981 60.2361 47.503 59.148C52.3293 57.0612 56.7844 55.1281 60.9323 54.04C72.9149 50.8651 81.9403 54.0912 88.0981 77.314C88.0981 77.314 77.8053 73.0637 74.4128 72.398C70.0217 71.5531 65.4002 72.8973 61.5084 74.9968C58.2439 76.7507 55.9907 79.183 54.6337 81.9227C53.4303 84.3422 52.931 87.0307 53.0463 89.7063C53.1615 92.4075 53.9168 95.1215 55.2354 97.5539C56.8997 100.639 59.46 103.302 62.7758 104.979L62.7374 105.043Z" fill="white"/>
<path d="M42.3684 104.877H54.8887C53.4037 103.353 52.1491 101.638 51.1633 99.7942C49.5247 96.7601 48.5901 93.3676 48.4365 89.9751C48.2957 86.5441 48.9486 83.1004 50.4976 79.9639C52.2515 76.405 55.1448 73.2685 59.3054 71.0281C64.0037 68.4934 69.675 66.8931 75.2439 67.9685C77.1641 68.3397 79.0588 69.0182 80.8895 70.0936C76.0248 58.1366 69.8158 56.4851 62.0706 58.5334C58.2172 59.5576 53.9286 61.4011 49.2943 63.411C46.593 64.576 43.7638 65.8049 41.0498 66.8675C36.2874 68.7366 29.2976 69.9016 23.3063 69.2743C20.0418 68.9286 17.0077 68.0581 14.6905 66.4962C12.1429 64.768 10.4403 62.2844 10.1458 58.8535C9.9538 56.5747 10.4147 53.8863 11.7205 50.7626C13.0135 46.4228 17.635 42.2237 22.7686 37.5766C26.5708 34.1329 30.6802 30.4075 33.6886 26.2853C37.8365 20.6012 37.7469 15.57 35.5577 11.9214C34.0727 9.45066 31.6531 7.55597 28.9391 6.4678C26.2379 5.39243 23.2935 5.12359 20.7075 5.90451C17.2637 6.94147 14.4601 9.98834 13.8968 15.6724C13.82 16.4789 13.3207 17.1446 12.655 17.4903C10.9396 18.3608 9.81298 20.2299 9.07047 22.1758H9.12168C12.0149 20.9468 15.3178 20.742 17.8014 21.0492C19.1456 21.2157 19.9777 21.1133 20.5282 20.7804L20.6178 20.7292C21.1939 20.3323 21.7444 19.5514 22.3973 18.4504C23.1654 17.1702 24.2408 16.4917 25.4314 16.2869C26.3787 16.1205 27.3645 16.2869 28.2734 16.7222C29.0671 17.0934 29.7969 17.6567 30.3985 18.3352C31.6019 19.705 32.37 21.6509 32.1012 23.648C31.7299 26.3109 27.2493 30.2795 21.9749 34.9266C18.0447 38.3959 13.628 42.3005 10.4275 45.9747C7.3294 49.5336 5.60113 53.2334 5.11466 56.7411C4.78181 59.1223 5.02504 61.4011 5.80596 63.475C6.57408 65.5361 7.89268 67.418 9.69776 68.9926C12.3478 71.297 16.0603 72.9484 20.7203 73.6013C40.8962 76.3922 41.1778 81.8842 42.0355 98.642C42.1124 100.255 42.202 101.996 42.3428 104.044L42.394 104.915L42.3684 104.877Z" fill="white"/>
</svg>
